<mxfile host="Electron" agent="Mozilla/5.0 (Macintosh; Intel Mac OS X 10_15_7) AppleWebKit/537.36 (KHTML, like Gecko) draw.io/28.0.4 Chrome/138.0.7204.97 Electron/37.2.1 Safari/537.36" version="28.0.4">
  <diagram name="Page-1" id="DCIBXwC-I0jSWs0JfKqc">
    <mxGraphModel dx="1429" dy="919" grid="1" gridSize="10" guides="1" tooltips="1" connect="1" arrows="1" fold="1" page="1" pageScale="1" pageWidth="850" pageHeight="1100" math="0" shadow="0">
      <root>
        <mxCell id="0" />
        <mxCell id="1" parent="0" />
        <mxCell id="6kYhPi5QQzZUY_HHYKGR-1" value="" style="swimlane;startSize=0;" parent="1" vertex="1">
          <mxGeometry x="330" y="210" width="230" height="200" as="geometry" />
        </mxCell>
        <mxCell id="6kYhPi5QQzZUY_HHYKGR-4" value="&lt;div&gt;&lt;font style=&quot;font-size: 26px;&quot;&gt;&lt;br&gt;&lt;/font&gt;&lt;/div&gt;&lt;font style=&quot;font-size: 26px;&quot;&gt;Game Stepper&lt;/font&gt;&lt;div&gt;&lt;font style=&quot;font-size: 26px;&quot;&gt;&lt;br&gt;&lt;/font&gt;&lt;/div&gt;" style="text;html=1;align=center;verticalAlign=middle;whiteSpace=wrap;rounded=0;" parent="6kYhPi5QQzZUY_HHYKGR-1" vertex="1">
          <mxGeometry x="20" y="85" width="190" height="30" as="geometry" />
        </mxCell>
        <mxCell id="6kYhPi5QQzZUY_HHYKGR-11" value="" style="swimlane;startSize=0;fillColor=default;strokeColor=none;" parent="1" vertex="1">
          <mxGeometry x="180" y="170" width="520" height="280" as="geometry" />
        </mxCell>
      </root>
    </mxGraphModel>
  </diagram>
</mxfile>
